<?xml version="1.0" encoding="UTF-8" standalone="no"?>
<svg
   xmlns:dc="http://purl.org/dc/elements/1.1/"
   xmlns:cc="http://creativecommons.org/ns#"
   xmlns:rdf="http://www.w3.org/1999/02/22-rdf-syntax-ns#"
   xmlns:svg="http://www.w3.org/2000/svg"
   xmlns="http://www.w3.org/2000/svg"
   xmlns:sodipodi="http://sodipodi.sourceforge.net/DTD/sodipodi-0.dtd"
   xmlns:inkscape="http://www.inkscape.org/namespaces/inkscape"
   version="1.1"
   viewBox="0 0 200 200"
   fill="none"
   stroke="none"
   stroke-linecap="square"
   stroke-miterlimit="10"
   id="svg27"
   sodipodi:docname="Untitled presentation (2).svg"
   width="200"
   height="200"
   inkscape:version="1.0.1 (3bc2e813f5, 2020-09-07)">
  <metadata
     id="metadata33">
    <rdf:RDF>
      <cc:Work
         rdf:about="">
        <dc:format>image/svg+xml</dc:format>
        <dc:type
           rdf:resource="http://purl.org/dc/dcmitype/StillImage" />
        <dc:title></dc:title>
      </cc:Work>
    </rdf:RDF>
  </metadata>
  <defs
     id="defs31" />
  <sodipodi:namedview
     pagecolor="#ffffff"
     bordercolor="#666666"
     borderopacity="1"
     objecttolerance="10"
     gridtolerance="10"
     guidetolerance="10"
     inkscape:pageopacity="0"
     inkscape:pageshadow="2"
     inkscape:window-width="1920"
     inkscape:window-height="1017"
     id="namedview29"
     showgrid="false"
     inkscape:zoom="1.0854167"
     inkscape:cx="480"
     inkscape:cy="270"
     inkscape:window-x="-8"
     inkscape:window-y="-8"
     inkscape:window-maximized="1"
     inkscape:current-layer="svg27" />
  <clipPath
     id="p.0">
    <path
       d="M 0,0 H 960 V 540 H 0 Z"
       clip-rule="nonzero"
       id="path2" />
  </clipPath>
  <path
     fill="#595959"
     d="m 40.994725,123.90853 v 0 c 0,-32.592196 26.421186,-59.013383 59.013405,-59.013383 v 0 c 15.65134,0 30.6616,6.217459 41.72876,17.28462 11.06718,11.067161 17.28465,26.077443 17.28465,41.728763 v 0 c 0,32.59221 -26.4212,59.01342 -59.01341,59.01342 v 0 c -32.592219,0 -59.013405,-26.42121 -59.013405,-59.01342 z"
     fill-rule="evenodd"
     id="path7"
     style="stroke-width:1.11495" />
  <path
     stroke="#595959"
     stroke-width="8.91961"
     stroke-linejoin="round"
     stroke-linecap="butt"
     d="m 40.994725,123.90853 v 0 c 0,-32.592196 26.421186,-59.013383 59.013405,-59.013383 v 0 c 15.65134,0 30.6616,6.217459 41.72876,17.28462 11.06718,11.067161 17.28465,26.077443 17.28465,41.728763 v 0 c 0,32.59221 -26.4212,59.01342 -59.01341,59.01342 v 0 c -32.592219,0 -59.013405,-26.42121 -59.013405,-59.01342 z"
     fill-rule="evenodd"
     id="path9" />
  <path
     fill="#595959"
     d="M 70.194135,48.328891 H 129.82208 V 68.204869 H 70.194135 Z"
     fill-rule="evenodd"
     id="path11"
     style="stroke-width:1.11495" />
  <path
     stroke="#595959"
     stroke-width="8.91961"
     stroke-linejoin="round"
     stroke-linecap="butt"
     d="M 70.194135,48.328891 H 129.82208 V 68.204869 H 70.194135 Z"
     fill-rule="evenodd"
     id="path13" />
  <path
     fill="#000000"
     fill-opacity="0"
     d="m 73.59206,18.577714 v 0 c 14.958095,2.079105 26.202441,16.54418 26.202441,33.707659 H 69.98051 Z"
     fill-rule="evenodd"
     id="path15"
     style="stroke-width:1.11495" />
  <path
     fill="#000000"
     fill-opacity="0"
     d="m 73.59206,18.577714 v 0 c 14.958095,2.079105 26.202441,16.54418 26.202441,33.707659"
     fill-rule="evenodd"
     id="path17"
     style="stroke-width:1.11495" />
  <path
     stroke="#595959"
     stroke-width="8.91961"
     stroke-linejoin="round"
     stroke-linecap="butt"
     d="m 73.59206,18.577714 v 0 c 14.958095,2.079105 26.202441,16.54418 26.202441,33.707659"
     fill-rule="evenodd"
     id="path19" />
  <path
     fill="#ff0000"
     d="m 77.959469,14.555829 2.676183,-5.338018 -0.263908,4.900857 3.03784,-0.798863 -1.206511,2.630348 3.160061,0.756528 -2.509353,2.151766 2.87101,2.590779 -3.424639,-0.320281 0.940461,4.742545 -2.965904,-3.348221 -0.555814,4.859426 -1.952112,-4.419499 -1.471814,6.134104 -0.553629,-5.497233 -2.123268,1.831497 0.650708,-3.386887 -3.977555,0.598238 2.579072,-2.588014 -2.676151,-2.908305 3.326847,-0.918496 -3.060797,-4.898092 4.99138,3.704391 0.747753,-3.704391 z"
     fill-rule="evenodd"
     id="path21"
     style="stroke-width:1.11495" />
  <path
     stroke="#ff0000"
     stroke-width="1.11495"
     stroke-linejoin="round"
     stroke-linecap="butt"
     d="m 77.959469,14.555829 2.676183,-5.338018 -0.263908,4.900857 3.03784,-0.798863 -1.206511,2.630348 3.160061,0.756528 -2.509353,2.151766 2.87101,2.590779 -3.424639,-0.320281 0.940461,4.742545 -2.965904,-3.348221 -0.555814,4.859426 -1.952112,-4.419499 -1.471814,6.134104 -0.553629,-5.497233 -2.123268,1.831497 0.650708,-3.386887 -3.977555,0.598238 2.579072,-2.588014 -2.676151,-2.908305 3.326847,-0.918496 -3.060797,-4.898092 4.99138,3.704391 0.747753,-3.704391 z"
     fill-rule="evenodd"
     id="path23" />
</svg>
