<?xml version="1.0" encoding="UTF-8" standalone="no"?>
<svg
   xmlns:dc="http://purl.org/dc/elements/1.1/"
   xmlns:cc="http://creativecommons.org/ns#"
   xmlns:rdf="http://www.w3.org/1999/02/22-rdf-syntax-ns#"
   xmlns:svg="http://www.w3.org/2000/svg"
   xmlns="http://www.w3.org/2000/svg"
   xmlns:sodipodi="http://sodipodi.sourceforge.net/DTD/sodipodi-0.dtd"
   xmlns:inkscape="http://www.inkscape.org/namespaces/inkscape"
   version="1.1"
   viewBox="0 0 200 200"
   fill="none"
   stroke="none"
   stroke-linecap="square"
   stroke-miterlimit="10"
   id="svg25"
   sodipodi:docname="Untitled presentation.svg"
   width="200"
   height="200"
   inkscape:version="1.0.1 (3bc2e813f5, 2020-09-07)">
  <metadata
     id="metadata31">
    <rdf:RDF>
      <cc:Work
         rdf:about="">
        <dc:format>image/svg+xml</dc:format>
        <dc:type
           rdf:resource="http://purl.org/dc/dcmitype/StillImage" />
        <dc:title></dc:title>
      </cc:Work>
    </rdf:RDF>
  </metadata>
  <defs
     id="defs29" />
  <sodipodi:namedview
     pagecolor="#ffffff"
     bordercolor="#666666"
     borderopacity="1"
     objecttolerance="10"
     gridtolerance="10"
     guidetolerance="10"
     inkscape:pageopacity="0"
     inkscape:pageshadow="2"
     inkscape:window-width="1920"
     inkscape:window-height="1017"
     id="namedview27"
     showgrid="false"
     inkscape:zoom="1.0854167"
     inkscape:cx="480"
     inkscape:cy="270"
     inkscape:window-x="-8"
     inkscape:window-y="-8"
     inkscape:window-maximized="1"
     inkscape:current-layer="svg25"
     showguides="false" />
  <clipPath
     id="p.0">
    <path
       d="M 0,0 H 960 V 540 H 0 Z"
       clip-rule="nonzero"
       id="path2" />
  </clipPath>
  <path
     fill="#ffffff"
     d="m 9.2823631,102.8481 v 0 c 0,-50.335185 40.8047229,-91.139908 91.1399169,-91.139908 v 0 c 24.1718,0 47.35362,9.602195 64.44563,26.69425 17.09202,17.092034 26.69427,40.273852 26.69427,64.445658 v 0 c 0,50.3352 -40.80472,91.13993 -91.1399,91.13993 v 0 c -50.335194,0 -91.1399169,-40.80473 -91.1399169,-91.13993 z"
     fill-rule="evenodd"
     id="path7"
     style="stroke-width:2.11527" />
  <path
     stroke="#595959"
     stroke-width="16.9222"
     stroke-linejoin="round"
     stroke-linecap="butt"
     d="m 9.2823631,100.32245 v 0 c 0,-50.335183 40.8047229,-91.1399057 91.1399169,-91.1399057 v 0 c 24.1718,0 47.35362,9.6021947 64.44563,26.6942497 17.09202,17.092034 26.69427,40.273852 26.69427,64.445656 v 0 c 0,50.3352 -40.80472,91.13993 -91.1399,91.13993 v 0 c -50.335194,0 -91.1399169,-40.80473 -91.1399169,-91.13993 z"
     fill-rule="evenodd"
     id="path9" />
  <path
     fill="#000000"
     fill-opacity="0"
     d="M 100.42225,108.67762 V 37.258015"
     fill-rule="evenodd"
     id="path11"
     style="stroke-width:2.11527" />
  <path
     stroke="#595959"
     stroke-width="8.46109"
     stroke-linejoin="round"
     stroke-linecap="butt"
     d="M 100.42225,108.67762 V 37.258015"
     fill-rule="evenodd"
     id="path13" />
  <path
     fill="#000000"
     fill-opacity="0"
     d="m 100.42373,102.8481 38.30807,22.11876"
     fill-rule="evenodd"
     id="path15"
     style="stroke-width:2.11527" />
  <path
     stroke="#595959"
     stroke-width="8.46109"
     stroke-linejoin="round"
     stroke-linecap="butt"
     d="m 100.42373,102.8481 38.30807,22.11876"
     fill-rule="evenodd"
     id="path17" />
  <path
     fill="#595959"
     d="m 94.592731,102.8481 v 0 c 0,-3.219505 2.610013,-5.829519 5.829519,-5.829519 v 0 c 1.54611,0 3.02883,0.614211 4.1221,1.707427 1.09321,1.093278 1.70743,2.575972 1.70743,4.122092 v 0 c 0,3.2195 -2.61002,5.82952 -5.82953,5.82952 v 0 c -3.219506,0 -5.829519,-2.61002 -5.829519,-5.82952 z"
     fill-rule="evenodd"
     id="path19"
     style="stroke-width:2.11527" />
  <path
     stroke="#595959"
     stroke-width="2.11527"
     stroke-linejoin="round"
     stroke-linecap="butt"
     d="m 94.592731,102.8481 v 0 c 0,-3.219505 2.610013,-5.829519 5.829519,-5.829519 v 0 c 1.54611,0 3.02883,0.614211 4.1221,1.707427 1.09321,1.093278 1.70743,2.575972 1.70743,4.122092 v 0 c 0,3.2195 -2.61002,5.82952 -5.82953,5.82952 v 0 c -3.219506,0 -5.829519,-2.61002 -5.829519,-5.82952 z"
     fill-rule="evenodd"
     id="path21" />
</svg>
